<?xml version="1.0" encoding="UTF-8" standalone="no"?>
<!DOCTYPE svg PUBLIC "-//W3C//DTD SVG 1.1//EN" "http://www.w3.org/Graphics/SVG/1.1/DTD/svg11.dtd">
<svg style="stroke:black; fill:none; stroke-width:1px; stroke-linejoin:round; text-anchor:left" xmlns="http://www.w3.org/2000/svg" font-family="Helvetica, Arial, FreeSans, Sans, sans, sans-serif" height="724 px" width="2693.0 px" version="1.1" xmlns:xlink="http://www.w3.org/1999/xlink" viewBox="0 0 2693.0 724">

<g>

<g>

<defs>

<marker refY="3.6" refX="1.5" markerUnits="strokeWidth" viewBox="0 0 10.5 7.2" stroke="none" id="true" markerWidth="10.5" fill="black" orient="auto" markerHeight="7.2">

<path d="M 1.5 3.6 L 0 0 L 10.5 3.6 L 0 7.2 L 1.5 3.6 Z"/>

</marker>

</defs>

<path marker-end="url(#true)" d="M307.25 240L452 245"/>

</g>

<g>

<defs>

<marker refY="3.6" refX="1.5" markerUnits="strokeWidth" viewBox="0 0 10.5 7.2" stroke="none" id="true" markerWidth="10.5" fill="black" orient="auto" markerHeight="7.2">

<path d="M 1.5 3.6 L 0 0 L 10.5 3.6 L 0 7.2 L 1.5 3.6 Z"/>

</marker>

</defs>

<path marker-end="url(#true)" d="M307.25 240L452 358"/>

</g>

<g>

<defs>

<marker refY="3.6" refX="1.5" markerUnits="strokeWidth" viewBox="0 0 10.5 7.2" stroke="none" id="true" markerWidth="10.5" fill="black" orient="auto" markerHeight="7.2">

<path d="M 1.5 3.6 L 0 0 L 10.5 3.6 L 0 7.2 L 1.5 3.6 Z"/>

</marker>

</defs>

<path marker-end="url(#true)" d="M398 325L680 245"/>

</g>

<g>

<defs>

<marker refY="3.6" refX="1.5" markerUnits="strokeWidth" viewBox="0 0 10.5 7.2" stroke="none" id="true" markerWidth="10.5" fill="black" orient="auto" markerHeight="7.2">

<path d="M 1.5 3.6 L 0 0 L 10.5 3.6 L 0 7.2 L 1.5 3.6 Z"/>

</marker>

</defs>

<path marker-end="url(#true)" d="M572 398L680 275"/>

</g>

<g>

<defs>

<marker refY="3.6" refX="1.5" markerUnits="strokeWidth" viewBox="0 0 10.5 7.2" stroke="none" id="true" markerWidth="10.5" fill="black" orient="auto" markerHeight="7.2">

<path d="M 1.5 3.6 L 0 0 L 10.5 3.6 L 0 7.2 L 1.5 3.6 Z"/>

</marker>

</defs>

<path marker-end="url(#true)" d="M572 383L680 260"/>

</g>

<g>

<defs>

<marker refY="3.6" refX="1.5" markerUnits="strokeWidth" viewBox="0 0 10.5 7.2" stroke="none" id="true" markerWidth="10.5" fill="black" orient="auto" markerHeight="7.2">

<path d="M 1.5 3.6 L 0 0 L 10.5 3.6 L 0 7.2 L 1.5 3.6 Z"/>

</marker>

</defs>

<path marker-end="url(#true)" d="M307.25 240L1005 260"/>

</g>

<g>

<defs>

<marker refY="3.6" refX="1.5" markerUnits="strokeWidth" viewBox="0 0 10.5 7.2" stroke="none" id="true" markerWidth="10.5" fill="black" orient="auto" markerHeight="7.2">

<path d="M 1.5 3.6 L 0 0 L 10.5 3.6 L 0 7.2 L 1.5 3.6 Z"/>

</marker>

</defs>

<path marker-end="url(#true)" d="M838.5 315L1005 245"/>

</g>

<g>

<defs>

<marker refY="3.6" refX="1.5" markerUnits="strokeWidth" viewBox="0 0 10.5 7.2" stroke="none" id="true" markerWidth="10.5" fill="black" orient="auto" markerHeight="7.2">

<path d="M 1.5 3.6 L 0 0 L 10.5 3.6 L 0 7.2 L 1.5 3.6 Z"/>

</marker>

</defs>

<path marker-end="url(#true)" d="M307.25 240L1233 260"/>

</g>

<g>

<defs>

<marker refY="3.6" refX="1.5" markerUnits="strokeWidth" viewBox="0 0 10.5 7.2" stroke="none" id="true" markerWidth="10.5" fill="black" orient="auto" markerHeight="7.2">

<path d="M 1.5 3.6 L 0 0 L 10.5 3.6 L 0 7.2 L 1.5 3.6 Z"/>

</marker>

</defs>

<path marker-end="url(#true)" d="M1125 285L1233 245"/>

</g>

<g>

<defs>

<marker refY="3.6" refX="1.5" markerUnits="strokeWidth" viewBox="0 0 10.5 7.2" stroke="none" id="true" markerWidth="10.5" fill="black" orient="auto" markerHeight="7.2">

<path d="M 1.5 3.6 L 0 0 L 10.5 3.6 L 0 7.2 L 1.5 3.6 Z"/>

</marker>

</defs>

<path marker-end="url(#true)" d="M307.25 240L1233 484"/>

</g>

<g>

<defs>

<marker refY="3.6" refX="1.5" markerUnits="strokeWidth" viewBox="0 0 10.5 7.2" stroke="none" id="true" markerWidth="10.5" fill="black" orient="auto" markerHeight="7.2">

<path d="M 1.5 3.6 L 0 0 L 10.5 3.6 L 0 7.2 L 1.5 3.6 Z"/>

</marker>

</defs>

<path marker-end="url(#true)" d="M1125 285L1233 469"/>

</g>

<g>

<defs>

<marker refY="3.6" refX="1.5" markerUnits="strokeWidth" viewBox="0 0 10.5 7.2" stroke="none" id="true" markerWidth="10.5" fill="black" orient="auto" markerHeight="7.2">

<path d="M 1.5 3.6 L 0 0 L 10.5 3.6 L 0 7.2 L 1.5 3.6 Z"/>

</marker>

</defs>

<path marker-end="url(#true)" d="M1485 300L1561 245"/>

</g>

<g>

<defs>

<marker refY="3.6" refX="1.5" markerUnits="strokeWidth" viewBox="0 0 10.5 7.2" stroke="none" id="true" markerWidth="10.5" fill="black" orient="auto" markerHeight="7.2">

<path d="M 1.5 3.6 L 0 0 L 10.5 3.6 L 0 7.2 L 1.5 3.6 Z"/>

</marker>

</defs>

<path marker-end="url(#true)" d="M1815 569L1561 383"/>

</g>

<g>

<defs>

<marker refY="3.6" refX="1.5" markerUnits="strokeWidth" viewBox="0 0 10.5 7.2" stroke="none" id="true" markerWidth="10.5" fill="black" orient="auto" markerHeight="7.2">

<path d="M 1.5 3.6 L 0 0 L 10.5 3.6 L 0 7.2 L 1.5 3.6 Z"/>

</marker>

</defs>

<path marker-end="url(#true)" d="M1653.5 408L1802 260"/>

</g>

<g>

<defs>

<marker refY="3.6" refX="1.5" markerUnits="strokeWidth" viewBox="0 0 10.5 7.2" stroke="none" id="true" markerWidth="10.5" fill="black" orient="auto" markerHeight="7.2">

<path d="M 1.5 3.6 L 0 0 L 10.5 3.6 L 0 7.2 L 1.5 3.6 Z"/>

</marker>

</defs>

<path marker-end="url(#true)" d="M561 270L1802 245"/>

</g>

<g>

<defs>

<marker refY="3.6" refX="1.5" markerUnits="strokeWidth" viewBox="0 0 10.5 7.2" stroke="none" id="true" markerWidth="10.5" fill="black" orient="auto" markerHeight="7.2">

<path d="M 1.5 3.6 L 0 0 L 10.5 3.6 L 0 7.2 L 1.5 3.6 Z"/>

</marker>

</defs>

<path marker-end="url(#true)" d="M1708.5 270L1802 275"/>

</g>

<g>

<defs>

<marker refY="3.6" refX="1.5" markerUnits="strokeWidth" viewBox="0 0 10.5 7.2" stroke="none" id="true" markerWidth="10.5" fill="black" orient="auto" markerHeight="7.2">

<path d="M 1.5 3.6 L 0 0 L 10.5 3.6 L 0 7.2 L 1.5 3.6 Z"/>

</marker>

</defs>

<path marker-end="url(#true)" d="M1985.25 330L2061 245"/>

</g>

<g>

<defs>

<marker refY="3.6" refX="1.5" markerUnits="strokeWidth" viewBox="0 0 10.5 7.2" stroke="none" id="true" markerWidth="10.5" fill="black" orient="auto" markerHeight="7.2">

<path d="M 1.5 3.6 L 0 0 L 10.5 3.6 L 0 7.2 L 1.5 3.6 Z"/>

</marker>

</defs>

<path marker-end="url(#true)" d="M1985.25 330L2061 403"/>

</g>

</g>

<g>

<path d="M195 200L302.25 200L302.25 230L195 230Z" fill="#EBD9B2"/>

<path d="M195 230L302.25 230L302.25 250L195 250Z" fill="#ffffff"/>

<path d="M195 285L393 285L393 315L195 315Z" fill="#EBD9B2"/>

<path d="M195 315L393 315L393 335L195 335Z" fill="#ffffff"/>

<path d="M457 200L556 200L556 230L457 230Z" fill="#EBD9B2"/>

<path d="M457 230L556 230L556 280L457 280Z" fill="#ffffff"/>

<path d="M457 313L567 313L567 343L457 343Z" fill="#EBD9B2"/>

<path d="M457 343L567 343L567 408L457 408Z" fill="#ffffff"/>

<path d="M685 200L833.5 200L833.5 230L685 230Z" fill="#EBD9B2"/>

<path d="M685 230L833.5 230L833.5 325L685 325Z" fill="#ffffff"/>

<path d="M1010 200L1120 200L1120 230L1010 230Z" fill="#EBD9B2"/>

<path d="M1010 230L1120 230L1120 295L1010 295Z" fill="#ffffff"/>

<path d="M1238 200L1480 200L1480 230L1238 230Z" fill="#EBD9B2"/>

<path d="M1238 230L1480 230L1480 325L1238 325Z" fill="#ffffff"/>

<path d="M1238 424L1810 424L1810 454L1238 454Z" fill="#EBD9B2"/>

<path d="M1238 454L1810 454L1810 609L1238 609Z" fill="#ffffff"/>

<path d="M1566 200L1703.5 200L1703.5 230L1566 230Z" fill="#EBD9B2"/>

<path d="M1566 230L1703.5 230L1703.5 280L1566 280Z" fill="#ffffff"/>

<path d="M1566 338L1648.5 338L1648.5 368L1566 368Z" fill="#EBD9B2"/>

<path d="M1566 368L1648.5 368L1648.5 418L1566 418Z" fill="#ffffff"/>

<path d="M1807 200L1980.25 200L1980.25 230L1807 230Z" fill="#EBD9B2"/>

<path d="M1807 230L1980.25 230L1980.25 340L1807 340Z" fill="#ffffff"/>

<path d="M2066 200L2209 200L2209 230L2066 230Z" fill="#EBD9B2"/>

<path d="M2066 230L2209 230L2209 295L2066 295Z" fill="#ffffff"/>

<path d="M2066 358L2148.5 358L2148.5 388L2066 388Z" fill="#EBD9B2"/>

<path d="M2066 388L2148.5 388L2148.5 438L2066 438Z" fill="#ffffff"/>

</g>

<g>

<text y="220" x="200" stroke="none" font-size="14px" fill="black">Input dataset</text>

<text y="245" x="200" stroke="none" font-size="10px" fill="black">output</text>

<text y="305" x="200" stroke="none" font-size="14px" fill="black">Input dataset collection</text>

<text y="330" x="200" stroke="none" font-size="10px" fill="black">output</text>

<text y="220" x="462" stroke="none" font-size="14px" fill="black">Find Repeats</text>

<text y="245" x="462" stroke="none" font-size="10px" fill="black">Fasta file</text>

<text y="275" x="462" stroke="none" font-size="10px" fill="black">out</text>

<text y="333" x="462" stroke="none" font-size="14px" fill="black">smalt index</text>

<text y="358" x="462" stroke="none" font-size="10px" fill="black">Fasta reference file</text>

<text y="388" x="462" stroke="none" font-size="10px" fill="black">output</text>

<text y="403" x="462" stroke="none" font-size="10px" fill="black">output2</text>

<text y="220" x="690" stroke="none" font-size="14px" fill="black">smalt map</text>

<text y="245" x="690" stroke="none" font-size="10px" fill="black">Paired-end Fastq collection</text>

<text y="260" x="690" stroke="none" font-size="10px" fill="black">SMI index</text>

<text y="275" x="690" stroke="none" font-size="10px" fill="black">SMA index</text>

<text y="290" x="690" stroke="none" font-size="10px" fill="black">Distribution insert sizes </text>

<text y="320" x="690" stroke="none" font-size="10px" fill="black">output</text>

<text y="220" x="1015" stroke="none" font-size="14px" fill="black">SAM-to-BAM</text>

<text y="245" x="1015" stroke="none" font-size="10px" fill="black">SAM file to convert</text>

<text y="260" x="1015" stroke="none" font-size="10px" fill="black">Using reference file</text>

<text y="290" x="1015" stroke="none" font-size="10px" fill="black">output1</text>

<text y="220" x="1243" stroke="none" font-size="14px" fill="black">MPileup</text>

<text y="245" x="1243" stroke="none" font-size="10px" fill="black">BAM file 1 &gt; BAM file</text>

<text y="260" x="1243" stroke="none" font-size="10px" fill="black">Using reference file</text>

<text y="275" x="1243" stroke="none" font-size="10px" fill="black">List of regions or sites on which to operate</text>

<text y="305" x="1243" stroke="none" font-size="10px" fill="black">output_mpileup</text>

<text y="320" x="1243" stroke="none" font-size="10px" fill="black">output_log</text>

<text y="444" x="1243" stroke="none" font-size="14px" fill="black">FreeBayes</text>

<text y="469" x="1243" stroke="none" font-size="10px" fill="black">Sample BAM file 1 &gt; BAM file</text>

<text y="484" x="1243" stroke="none" font-size="10px" fill="black">Using reference file</text>

<text y="499" x="1243" stroke="none" font-size="10px" fill="black">Limit analysis to samples listed (one per line) in the FILE</text>

<text y="514" x="1243" stroke="none" font-size="10px" fill="black">Populations File</text>

<text y="529" x="1243" stroke="none" font-size="10px" fill="black">Read a copy number map from the BED file FILE</text>

<text y="544" x="1243" stroke="none" font-size="10px" fill="black">Only use variant alleles provided in this input VCF for the construction of complex or haplotype alleles</text>

<text y="574" x="1243" stroke="none" font-size="10px" fill="black">output_vcf</text>

<text y="589" x="1243" stroke="none" font-size="10px" fill="black">output_failed_alleles_bed</text>

<text y="604" x="1243" stroke="none" font-size="10px" fill="black">output_trace</text>

<text y="220" x="1571" stroke="none" font-size="14px" fill="black">bcftools view</text>

<text y="245" x="1571" stroke="none" font-size="10px" fill="black">Choose a bcf file to view</text>

<text y="275" x="1571" stroke="none" font-size="10px" fill="black">output</text>

<text y="358" x="1571" stroke="none" font-size="14px" fill="black">Filter vcf</text>

<text y="383" x="1571" stroke="none" font-size="10px" fill="black">VCF file</text>

<text y="413" x="1571" stroke="none" font-size="10px" fill="black">vcfout</text>

<text y="220" x="1812" stroke="none" font-size="14px" fill="black">VCF 2 pseudoalignment</text>

<text y="245" x="1812" stroke="none" font-size="10px" fill="black">Invalid position file</text>

<text y="260" x="1812" stroke="none" font-size="10px" fill="black">FreeBayes filtered VCF</text>

<text y="275" x="1812" stroke="none" font-size="10px" fill="black">Mpileup VCF</text>

<text y="305" x="1812" stroke="none" font-size="10px" fill="black">positions</text>

<text y="320" x="1812" stroke="none" font-size="10px" fill="black">fasta</text>

<text y="335" x="1812" stroke="none" font-size="10px" fill="black">phylip</text>

<text y="220" x="2071" stroke="none" font-size="14px" fill="black">PhyML</text>

<text y="245" x="2071" stroke="none" font-size="10px" fill="black">Alignment in phylip format</text>

<text y="275" x="2071" stroke="none" font-size="10px" fill="black">output_tree</text>

<text y="290" x="2071" stroke="none" font-size="10px" fill="black">output_stats</text>

<text y="378" x="2071" stroke="none" font-size="14px" fill="black">SNP Matrix</text>

<text y="403" x="2071" stroke="none" font-size="10px" fill="black">Phylip file</text>

<text y="433" x="2071" stroke="none" font-size="10px" fill="black">csv</text>

<path d="M457 255L556 255"/>

<circle cy="240" cx="302.25" r="5" fill="#ffffff"/>

<path d="M457 368L567 368"/>

<circle cy="240" cx="302.25" r="5" fill="#ffffff"/>

<path d="M685 300L833.5 300"/>

<circle cy="325" cx="393.0" r="5" fill="#ffffff"/>

<circle cy="398" cx="567.0" r="5" fill="#ffffff"/>

<circle cy="383" cx="567.0" r="5" fill="#ffffff"/>

<path d="M1010 270L1120 270"/>

<circle cy="240" cx="302.25" r="5" fill="#ffffff"/>

<circle cy="315" cx="833.5" r="5" fill="#ffffff"/>

<path d="M1238 285L1480 285"/>

<circle cy="240" cx="302.25" r="5" fill="#ffffff"/>

<circle cy="285" cx="1120.0" r="5" fill="#ffffff"/>

<path d="M1238 554L1810 554"/>

<circle cy="240" cx="302.25" r="5" fill="#ffffff"/>

<circle cy="285" cx="1120.0" r="5" fill="#ffffff"/>

<path d="M1566 255L1703.5 255"/>

<circle cy="300" cx="1480.0" r="5" fill="#ffffff"/>

<path d="M1566 393L1648.5 393"/>

<circle cy="569" cx="1810.0" r="5" fill="#ffffff"/>

<path d="M1807 285L1980.25 285"/>

<circle cy="408" cx="1648.5" r="5" fill="#ffffff"/>

<circle cy="270" cx="556.0" r="5" fill="#ffffff"/>

<circle cy="270" cx="1703.5" r="5" fill="#ffffff"/>

<path d="M2066 255L2209 255"/>

<circle cy="330" cx="1980.25" r="5" fill="#ffffff"/>

<path d="M2066 413L2148.5 413"/>

<circle cy="330" cx="1980.25" r="5" fill="#ffffff"/>

</g>

</svg>